<svg xmlns="http://www.w3.org/2000/svg" width="20.282" height="29.866" viewBox="0 0 20.282 29.866">
  <path id="android" d="M27.015,24.164A1.267,1.267,0,0,1,25.747,22.9V15.291a1.268,1.268,0,1,1,2.535,0V22.9A1.268,1.268,0,0,1,27.015,24.164ZM23.209,7.95a10.873,10.873,0,0,1,1.27,4.806H11.8a10.48,10.48,0,0,1,1.228-4.847L10.644,5.521a.634.634,0,1,1,.9-.9l2.239,2.239a5.584,5.584,0,0,1,4.362-1.792A5.493,5.493,0,0,1,22.464,6.9l2.278-2.277a.634.634,0,0,1,.9.9L23.209,7.95Zm-8.237,1a.634.634,0,1,0,.634.634A.634.634,0,0,0,14.972,8.953Zm6.338,0a.634.634,0,1,0,.634.634A.634.634,0,0,0,21.31,8.953ZM10.535,22.9A1.268,1.268,0,1,1,8,22.9V15.291a1.268,1.268,0,1,1,2.535,0Zm13.944,2.535A3.792,3.792,0,0,1,21.944,29v4.036a1.268,1.268,0,1,1-2.535,0v-3.8H16.873v3.8a1.268,1.268,0,1,1-2.535,0V29a3.792,3.792,0,0,1-2.535-3.57V14.023H24.479Z" transform="translate(-8 -4.44)" fill="#fff"/>
</svg>
