<svg xmlns="http://www.w3.org/2000/svg" width="21.382" height="26.259" viewBox="0 0 21.382 26.259">
  <path id="apple" d="M20.83,13.953a5.943,5.943,0,0,1,2.834-5,6.133,6.133,0,0,0-4.8-2.6c-2.045-.207-3.99,1.2-5.028,1.2S11.2,6.381,9.5,6.412A6.423,6.423,0,0,0,4.071,9.7c-2.316,4.018-.593,9.971,1.664,13.23,1.1,1.6,2.418,3.387,4.145,3.323,1.663-.066,2.292-1.076,4.3-1.076s2.575,1.076,4.335,1.043c1.789-.034,2.923-1.626,4.018-3.226a14.465,14.465,0,0,0,1.818-3.735,5.8,5.8,0,0,1-3.524-5.312ZM17.523,4.193A5.785,5.785,0,0,0,18.89,0a5.891,5.891,0,0,0-3.867,1.988,5.5,5.5,0,0,0-1.394,4.063,4.872,4.872,0,0,0,3.9-1.858Z" transform="translate(-2.971)" fill="#fff"/>
</svg>
