<svg xmlns="http://www.w3.org/2000/svg" width="19.2" height="19.2" viewBox="0 0 19.2 19.2">
  <path id="grid" d="M12.8,6.4H8A1.6,1.6,0,0,0,6.4,8v4.8A1.6,1.6,0,0,0,8,14.4h4.8a1.6,1.6,0,0,0,1.6-1.6V8A1.6,1.6,0,0,0,12.8,6.4ZM24,6.4H19.2A1.6,1.6,0,0,0,17.6,8v4.8a1.6,1.6,0,0,0,1.6,1.6H24a1.6,1.6,0,0,0,1.6-1.6V8A1.6,1.6,0,0,0,24,6.4ZM12.8,17.6H8a1.6,1.6,0,0,0-1.6,1.6V24A1.6,1.6,0,0,0,8,25.6h4.8A1.6,1.6,0,0,0,14.4,24V19.2A1.6,1.6,0,0,0,12.8,17.6Zm11.2,0H19.2a1.6,1.6,0,0,0-1.6,1.6V24a1.6,1.6,0,0,0,1.6,1.6H24A1.6,1.6,0,0,0,25.6,24V19.2A1.6,1.6,0,0,0,24,17.6Z" transform="translate(-6.4 -6.4)" fill="#5e5c5c"/>
</svg>
