<svg xmlns="http://www.w3.org/2000/svg" width="40" height="40" viewBox="0 0 40 40">
  <path id="github-with-circle" d="M20.671,20.533h-.062c-2.482,0-4.667-.632-5.961.559a3.266,3.266,0,0,0-1.1,2.493c0,3.858,3.09,4.333,7.06,4.333h.06c3.969,0,7.06-.477,7.06-4.333a3.267,3.267,0,0,0-1.1-2.493c-1.3-1.19-3.482-.559-5.962-.559Zm-3.379,5.273c-.757,0-1.367-.85-1.367-1.9s.611-1.892,1.367-1.892,1.368.846,1.368,1.892S18.05,25.807,17.292,25.807Zm6.694,0c-.757,0-1.368-.85-1.368-1.9s.612-1.892,1.368-1.892,1.367.846,1.367,1.892S24.743,25.807,23.986,25.807ZM20.64.64a20,20,0,1,0,20,20,20,20,0,0,0-20-20Zm1.826,28.206c-.358,0-1.07,0-1.826,0s-1.466,0-1.826,0c-1.583,0-7.858-.122-7.858-7.685a5.711,5.711,0,0,1,1.573-4.073,9.4,9.4,0,0,1,.667-4.659,11.832,11.832,0,0,1,4.794,2.19,11.216,11.216,0,0,1,2.65-.254,11.421,11.421,0,0,1,2.652.253,11.832,11.832,0,0,1,4.794-2.19,9.37,9.37,0,0,1,.667,4.659,5.711,5.711,0,0,1,1.573,4.073c0,7.566-6.277,7.687-7.861,7.687Z" transform="translate(-0.64 -0.64)" fill="#ed4e94"/>
</svg>
