<svg xmlns="http://www.w3.org/2000/svg" width="40" height="40" viewBox="0 0 40 40">
  <path id="google-with-circle" d="M20.64.64a20,20,0,1,0,20,20,20,20,0,0,0-20-20ZM19.488,29.226a7.515,7.515,0,0,1-3.132.674h-.268c-.816,0-4.882-.187-4.882-3.889,0-3.638,4.427-3.923,5.784-3.923h.035a3.015,3.015,0,0,1-.621-2.1c-.069,0-.169.008-.292.008a4.429,4.429,0,0,1-2.341-.628A3.714,3.714,0,0,1,12.209,16c0-4.44,4.848-4.618,4.9-4.622h4.841v.107c0,.542-.973.648-1.635.737a4.639,4.639,0,0,0-.8.142c1.227.656,1.424,1.685,1.424,3.219a4.069,4.069,0,0,1-1.409,3.316c-.451.4-.8.716-.8,1.139s.483.837,1.046,1.331a5.012,5.012,0,0,1,2.18,3.773,4.2,4.2,0,0,1-2.458,4.087ZM30.015,20.64H26.89v3.125H24.807V20.64H21.682V18.557h3.125V15.432H26.89v3.125h3.125Zm-13.077,2.4c-.108,0-.216,0-.327.013a4,4,0,0,0-2.4.977,2.455,2.455,0,0,0-.882,1.961c.094,1.482,1.684,2.348,3.615,2.211,1.9-.138,3.167-1.233,3.076-2.715-.087-1.392-1.3-2.445-3.086-2.445Zm1.82-8.052c-.5-1.771-1.316-2.3-2.579-2.3a1.564,1.564,0,0,0-.4.056,1.916,1.916,0,0,0-1.225,1.292,3.63,3.63,0,0,0-.049,2.221c.385,1.461,1.423,2.518,2.469,2.518a1.393,1.393,0,0,0,.4-.056C18.516,18.4,19.234,16.653,18.758,14.984Z" transform="translate(-0.64 -0.64)" fill="#ed4e94"/>
</svg>
