<svg xmlns="http://www.w3.org/2000/svg" width="40" height="40" viewBox="0 0 40 40">
  <path id="linkedin-with-circle" d="M20.64.64a20,20,0,1,0,20,20,20,20,0,0,0-20-20Zm-4.9,28.289H11.695V15.9h4.049ZM13.695,14.3a2.028,2.028,0,1,1,.052-4.051,2.03,2.03,0,1,1-.052,4.051ZM30.536,28.929H26.486V21.706c0-1.681-.587-2.823-2.052-2.823A2.224,2.224,0,0,0,22.357,20.4a2.872,2.872,0,0,0-.135,1.013v7.514H18.17V20.053c0-1.628-.052-2.987-.107-4.159h3.518l.185,1.81h.081a4.689,4.689,0,0,1,4.025-2.1c2.664,0,4.663,1.785,4.663,5.622v7.706Z" transform="translate(-0.64 -0.64)" fill="#ed4e94"/>
</svg>
