<svg xmlns="http://www.w3.org/2000/svg" width="40" height="40" viewBox="0 0 40 40">
  <path id="twitter-with-circle" d="M20.64.64a20,20,0,1,0,20,20,20,20,0,0,0-20-20Zm8.135,16.383c.008.171.01.341.01.508a11.2,11.2,0,0,1-17.243,9.44,7.7,7.7,0,0,0,.94.052,7.894,7.894,0,0,0,4.892-1.685,3.949,3.949,0,0,1-3.68-2.733,4.058,4.058,0,0,0,.74.069,3.952,3.952,0,0,0,1.038-.138,3.942,3.942,0,0,1-3.16-3.862v-.048a3.942,3.942,0,0,0,1.785.493,3.947,3.947,0,0,1-1.219-5.263A11.2,11.2,0,0,0,21,17.975a3.867,3.867,0,0,1-.1-.9,3.94,3.94,0,0,1,6.815-2.694,7.924,7.924,0,0,0,2.5-.956,3.956,3.956,0,0,1-1.732,2.181,7.938,7.938,0,0,0,2.263-.622,7.973,7.973,0,0,1-1.965,2.039Z" transform="translate(-0.64 -0.64)" fill="#ed4e94"/>
</svg>
